<svg width="0" height="0" >
  <symbol fill="none" xmlns="http://www.w3.org/2000/svg" viewBox="0 0 24 24" id="arrow_line_right">
    <path d="M19 12H5" stroke="black" stroke-width="2" stroke-linecap="round" stroke-linejoin="round"></path>
    <path d="M10 17L5 12L10 7" stroke="black" stroke-width="2" stroke-linecap="round" stroke-linejoin="round"></path>
  </symbol>

  <symbol fill="none" xmlns="http://www.w3.org/2000/svg" viewBox="0 0 20 20" id="bean">
    <path d="M18.396 0.827154L12.3406 6.88249C12.2226 6.35942 11.9736 5.79552 11.5957 5.198C11.3236 4.76768 10.8573 4.51076 10.3483 4.5108C10.178 4.5108 10.0127 4.54018 9.85755 4.59465C9.76826 4.00537 9.50412 3.36024 9.06779 2.67012C8.7957 2.23981 8.32943 1.98288 7.82044 1.98288C7.31144 1.98288 6.84518 2.23981 6.57301 2.67012C6.37348 2.98578 6.21022 3.29192 6.08279 3.58774C5.96219 3.39732 5.82514 3.21981 5.66907 3.06369C5.17258 2.56717 4.41453 2.20134 3.41598 1.97632C2.9193 1.86443 2.4079 2.01249 2.04798 2.37237C1.6881 2.73228 1.53997 3.24361 1.65194 3.74036C1.87692 4.73888 2.24278 5.49692 2.73927 5.99341C2.8952 6.14935 3.0725 6.28625 3.2627 6.40674C2.96743 6.53405 2.66194 6.69699 2.34691 6.89612C1.91659 7.16817 1.6597 7.63448 1.6597 8.14351C1.6597 8.65254 1.91662 9.11881 2.34694 9.39089C3.0371 9.82723 3.68223 10.0914 4.27147 10.1807C4.21704 10.3358 4.18765 10.5011 4.18765 10.6715C4.18765 11.1805 4.44457 11.6468 4.87489 11.9189C5.47245 12.2967 6.03631 12.5457 6.55938 12.6637L0.827285 18.3958C0.61291 18.6102 0.61291 18.9578 0.827285 19.1722C1.04166 19.3866 1.38929 19.3866 1.6037 19.1722L6.88933 13.8866C7.00756 14.1153 7.1854 14.3127 7.41192 14.4559C8.27708 15.0029 9.07176 15.2802 9.77395 15.2802C10.9746 15.2802 12.2249 14.4402 12.8507 13.9515L16.9612 18.0619C17.1755 18.2763 17.5232 18.2763 17.7376 18.0619C17.8448 17.9547 17.8984 17.8142 17.8984 17.6737C17.8984 17.5332 17.8448 17.3927 17.7376 17.2855L13.6273 13.1752C14.1158 12.5499 14.9571 11.2987 14.9571 10.0971C14.9571 9.39491 14.6797 8.60022 14.1328 7.73503C13.9896 7.50855 13.7922 7.3307 13.5635 7.21247L19.1724 1.60361C19.2796 1.49638 19.3332 1.35584 19.3332 1.21533C19.3332 1.07482 19.2796 0.934305 19.1724 0.827116C18.958 0.612742 18.6103 0.612742 18.396 0.827154ZM3.51573 5.217C3.17331 4.87458 2.89921 4.28049 2.72316 3.499C2.71623 3.46834 2.71324 3.43939 2.71324 3.4122C2.71324 3.27683 2.78765 3.18564 2.82447 3.14878C2.86874 3.10456 2.99138 3.0062 3.17466 3.04747C3.95618 3.22356 4.55023 3.49762 4.89265 3.84004C5.42151 4.3689 5.68 5.38682 5.78927 6.11358C5.06236 6.00428 4.04459 5.74582 3.51573 5.217ZM6.84678 5.03212C6.84678 4.54788 7.07308 3.93399 7.50113 3.25688C7.60161 3.09804 7.75795 3.08086 7.82047 3.08086C7.883 3.08086 8.0393 3.09803 8.1397 3.25685C8.5678 3.93399 8.79409 4.54784 8.79409 5.03212C8.79409 5.78006 8.25706 6.68262 7.82044 7.27376C7.3837 6.68244 6.84678 5.77995 6.84678 5.03212ZM2.93381 8.46281C2.77496 8.36237 2.75779 8.20603 2.75779 8.14354C2.75779 8.08105 2.77496 7.92472 2.93378 7.82428C3.61095 7.39618 4.22477 7.16989 4.70904 7.16989C5.45699 7.16989 6.35955 7.70688 6.95069 8.14351C6.35937 8.58028 5.45688 9.11717 4.70904 9.11717C4.22477 9.11717 3.61092 8.8909 2.93381 8.46281ZM5.46176 10.9908C5.30291 10.8903 5.28574 10.734 5.28574 10.6715C5.28574 10.609 5.30291 10.4527 5.46173 10.3522C6.13887 9.9241 6.75268 9.69784 7.23699 9.69784C7.77742 9.69784 8.39848 9.97824 8.92458 10.2985L7.61955 11.6035C7.48925 11.6301 7.36095 11.6451 7.23699 11.6451C6.75272 11.6451 6.13883 11.4189 5.46176 10.9908ZM12.0157 13.2084C11.4243 13.6452 10.5219 14.1821 9.77402 14.1821C9.28971 14.1821 8.67586 13.9558 7.99879 13.5277C7.83994 13.4273 7.82277 13.2709 7.82277 13.2084C7.82277 13.1459 7.83994 12.9896 7.99875 12.8892C8.6759 12.4611 9.28971 12.2348 9.77402 12.2348C10.522 12.2348 11.4245 12.7718 12.0157 13.2084ZM13.2046 8.32179C13.6327 8.99893 13.859 9.61278 13.859 10.0971C13.859 10.845 13.322 11.7476 12.8854 12.3387C12.4486 11.7474 11.9117 10.8449 11.9117 10.0971C11.9117 9.61282 12.138 8.99893 12.5661 8.32179C12.6665 8.16298 12.8229 8.1458 12.8853 8.1458C12.9479 8.14584 13.1042 8.16298 13.2046 8.32179ZM11.3221 7.56003C11.3221 7.68399 11.3071 7.81225 11.2805 7.94262L9.97545 9.24765C9.65513 8.72155 9.3748 8.10045 9.3748 7.56006C9.3748 7.07579 9.6011 6.4619 10.0292 5.7848C10.1296 5.62599 10.2859 5.60881 10.3484 5.60881C10.4109 5.60881 10.5672 5.62599 10.6677 5.7848C11.0957 6.4619 11.3221 7.07575 11.3221 7.56003Z" fill="#333333"></path>
  </symbol>


<symbol fill="none" xmlns="http://www.w3.org/2000/svg" viewBox="0 0 13 15" id="drip">
    <path d="M2.15094 4.29579L2.50073 4.65307L6.53862 0.69974L10.5765 4.65307C12.7995 6.82947 12.7995 10.3536 10.5765 12.53C8.34761 14.7122 4.72962 14.7122 2.50073 12.53C0.277751 10.3536 0.277751 6.82948 2.50073 4.65307L2.15094 4.29579Z" stroke="#333333"></path>
  </symbol>


<symbol fill="none" xmlns="http://www.w3.org/2000/svg" viewBox="0 0 15 15" id="bery">
    <path d="M10.7724 14.6667C11.9295 14.6667 12.9988 14.2345 13.7834 13.45C14.6393 12.5941 15.0682 11.4221 14.9912 10.1498C14.9165 8.91557 14.3703 7.7308 13.4531 6.81368C12.6696 6.03006 11.7 5.5197 10.6492 5.33786C10.1224 5.24667 9.75336 4.87763 9.66216 4.35081C9.48021 3.29998 8.96996 2.33039 8.18634 1.54688C7.26922 0.629764 6.08445 0.0834795 4.85022 0.00884367C3.57805 -0.0682539 2.40592 0.360762 1.55002 1.21667C0.694111 2.07257 0.265206 3.24459 0.342193 4.51687C0.416828 5.7511 0.963113 6.93599 1.88023 7.85299C2.66374 8.63661 3.63333 9.14686 4.68405 9.32881C5.21098 9.42001 5.5799 9.78905 5.67121 10.3159C5.85316 11.3667 6.36341 12.3362 7.14703 13.1198C8.06415 14.0369 9.24892 14.5832 10.4832 14.6578C10.5798 14.6636 10.6772 14.6667 10.7724 14.6667ZM4.56175 0.859267C4.63996 0.859267 4.71885 0.861729 4.79819 0.86654C5.82272 0.928532 6.81022 1.38597 7.57873 2.15448C8.23636 2.812 8.66403 3.62214 8.81554 4.4974C8.96906 5.38441 9.61561 6.03096 10.5026 6.18448C11.3779 6.33599 12.188 6.76367 12.8455 7.42129C13.6141 8.1898 14.0715 9.1773 14.1335 10.2017C14.1955 11.2251 13.8553 12.163 13.1759 12.8425C12.5536 13.4648 11.7 13.8074 10.7724 13.8074C10.6943 13.8074 10.6145 13.8049 10.5351 13.8001C9.51054 13.7381 8.52304 13.2808 7.75453 12.5122C7.09701 11.8547 6.66934 11.0444 6.51783 10.1693C6.36419 9.28215 5.71776 8.63572 4.83064 8.48219C3.95548 8.33068 3.14534 7.90301 2.48772 7.24539C1.71921 6.47687 1.26177 5.48937 1.19978 4.46495C1.1379 3.44153 1.47795 2.50372 2.15751 1.82416C2.78447 1.19731 3.63098 0.859267 4.56175 0.859267Z" fill="#333333"></path>
    <path d="M5.65734 4.87969C5.67133 4.87969 5.68565 4.87879 5.69975 4.87745C5.71351 4.87622 5.7275 4.87398 5.74126 4.87141C5.75503 4.8685 5.76879 4.86514 5.78222 4.86078C5.79542 4.85675 5.80885 4.85216 5.82172 4.84679C5.83458 4.84131 5.84756 4.83538 5.85987 4.82866C5.87218 4.82217 5.88416 4.81501 5.8959 4.80718C5.90765 4.79946 5.91884 4.79118 5.9297 4.78234C5.94055 4.77338 5.95118 4.76376 5.96125 4.75403C6.04115 4.67413 6.08691 4.56324 6.08691 4.45011C6.08691 4.43612 6.08635 4.4218 6.0849 4.40804C6.08356 4.39394 6.08121 4.37995 6.07863 4.36619C6.07584 4.35242 6.07237 4.33866 6.06834 4.32523C6.06409 4.31203 6.0595 4.2986 6.05402 4.28562C6.04853 4.27287 6.0426 4.26022 6.036 4.24791C6.0294 4.23527 6.02224 4.22329 6.01452 4.21155C6.0068 4.20002 5.99851 4.18861 5.98956 4.17775C5.98072 4.16679 5.97099 4.15627 5.96125 4.1462C5.95118 4.13646 5.94055 4.12673 5.9297 4.11789C5.91884 4.10894 5.90765 4.10065 5.8959 4.09293C5.88416 4.08521 5.87218 4.07805 5.85987 4.07145C5.84756 4.06485 5.83458 4.0588 5.82172 4.05343C5.80885 4.04795 5.79542 4.04336 5.78222 4.03911C5.76879 4.03508 5.75503 4.03161 5.74126 4.02882C5.7275 4.02624 5.71351 4.02389 5.69975 4.02244C5.67166 4.01986 5.64302 4.01986 5.61526 4.02244C5.60117 4.02389 5.58718 4.02624 5.57342 4.02882C5.55965 4.03161 5.54589 4.03508 5.5328 4.03911C5.51926 4.04336 5.50583 4.04795 5.49296 4.05343C5.48009 4.0588 5.46745 4.06485 5.45514 4.07145C5.44283 4.07805 5.43052 4.08521 5.41877 4.09293C5.40736 4.10065 5.39583 4.10894 5.38498 4.11789C5.37413 4.12673 5.36349 4.13646 5.35342 4.1462C5.34369 4.15627 5.33429 4.16679 5.32511 4.17775C5.3165 4.18861 5.30788 4.20002 5.30016 4.21155C5.29244 4.22329 5.28528 4.23527 5.27868 4.24791C5.27207 4.26022 5.26614 4.27287 5.26066 4.28562C5.25518 4.2986 5.25059 4.31203 5.24667 4.32523C5.24231 4.33866 5.23895 4.35242 5.23627 4.36619C5.23347 4.37995 5.23112 4.39394 5.23 4.40804C5.22855 4.42169 5.22776 4.43601 5.22776 4.45011C5.22776 4.56324 5.27353 4.67413 5.35342 4.75403C5.36349 4.76376 5.37413 4.7735 5.38498 4.78234C5.39583 4.79118 5.40736 4.79957 5.41877 4.80718C5.43052 4.81501 5.44283 4.82217 5.45514 4.82866C5.46745 4.83526 5.48009 4.84131 5.49296 4.84679C5.50583 4.85216 5.51926 4.85686 5.5328 4.86078C5.54589 4.86514 5.55965 4.8685 5.57342 4.87141C5.58718 4.87398 5.60117 4.87622 5.61526 4.87745C5.62903 4.87879 5.64335 4.87969 5.65734 4.87969Z" fill="#333333"></path>
    <path d="M7.20812 4.61788C7.22222 4.61788 7.23654 4.61732 7.25053 4.61587C7.26452 4.61442 7.27862 4.6124 7.29238 4.6096C7.30581 4.60669 7.31957 4.60334 7.333 4.59931C7.34643 4.59528 7.35963 4.59036 7.3725 4.58499C7.38548 4.57984 7.39835 4.57357 7.41065 4.56719C7.42296 4.56059 7.43527 4.55321 7.44669 4.54549C7.45844 4.53765 7.46996 4.52937 7.48081 4.52053C7.49167 4.51158 7.5023 4.50196 7.51203 4.49211C7.52199 4.48215 7.5315 4.47152 7.54034 4.46067C7.5493 4.44981 7.55758 4.43862 7.56552 4.42687C7.57335 4.41513 7.58052 4.40304 7.58701 4.39073C7.59361 4.37842 7.59965 4.36555 7.60513 4.35269C7.61028 4.33982 7.61509 4.32628 7.61912 4.31307C7.62315 4.29965 7.62662 4.286 7.62941 4.27212C7.63232 4.25847 7.63434 4.24437 7.63579 4.23061C7.63714 4.21662 7.6377 4.2023 7.6377 4.18831C7.6377 4.17421 7.63714 4.16022 7.63579 4.14612C7.63434 4.13214 7.63232 4.11815 7.62941 4.10439C7.62662 4.09062 7.62315 4.07686 7.61912 4.06365C7.61509 4.05023 7.61028 4.03702 7.60513 4.02415C7.59965 4.01095 7.59361 3.99842 7.58701 3.986C7.58052 3.97369 7.57335 3.96149 7.56552 3.94997C7.55758 3.93822 7.5493 3.9268 7.54034 3.91595C7.5315 3.90498 7.52199 3.89447 7.51203 3.88462C7.5023 3.87466 7.49167 3.86515 7.48081 3.85597C7.46996 3.84747 7.45844 3.83885 7.44669 3.83113C7.43527 3.82341 7.42296 3.81625 7.41065 3.80965C7.39835 3.80304 7.38548 3.797 7.3725 3.79152C7.35963 3.78615 7.34643 3.78156 7.333 3.7772C7.31957 3.77328 7.30581 3.76981 7.29238 3.76701C7.27862 3.76444 7.26452 3.76209 7.25053 3.76097C7.22244 3.75806 7.19413 3.75806 7.16605 3.76097C7.15195 3.76209 7.13796 3.76444 7.1242 3.76701C7.11077 3.76981 7.09701 3.77328 7.08358 3.7772C7.07004 3.78156 7.05695 3.78615 7.04397 3.79152C7.0311 3.797 7.01823 3.80304 7.00592 3.80965C6.99361 3.81625 6.9813 3.82341 6.96989 3.83113C6.95814 3.83885 6.94661 3.84747 6.93576 3.85597C6.92491 3.86515 6.91428 3.87466 6.90454 3.88462C6.89447 3.89447 6.88507 3.90498 6.87623 3.91595C6.86728 3.9268 6.85866 3.93822 6.85094 3.94997C6.84322 3.96138 6.83606 3.97369 6.82946 3.986C6.82297 3.99842 6.81693 4.01095 6.81144 4.02415C6.80629 4.03702 6.80148 4.05023 6.79745 4.06365C6.79309 4.07686 6.78973 4.09062 6.78716 4.10439C6.78425 4.11804 6.78224 4.13214 6.78078 4.14612C6.77933 4.16022 6.77854 4.17421 6.77854 4.18831C6.77854 4.2023 6.77933 4.21662 6.78078 4.23061C6.78224 4.24437 6.78425 4.25847 6.78716 4.27212C6.78973 4.28588 6.79309 4.29965 6.79745 4.31307C6.80148 4.32628 6.80629 4.33982 6.81144 4.35269C6.81693 4.36555 6.82297 4.37842 6.82946 4.39073C6.83606 4.40304 6.84322 4.41513 6.85094 4.42687C6.85866 4.43862 6.86728 4.44981 6.87623 4.46067C6.88507 4.47152 6.89447 4.48215 6.90454 4.49211C6.91428 4.50196 6.92491 4.51169 6.93576 4.52053C6.94661 4.52937 6.95814 4.53777 6.96989 4.54549C6.9813 4.55321 6.99361 4.56059 7.00592 4.56719C7.01823 4.57357 7.0311 4.57984 7.04397 4.58499C7.05695 4.59036 7.07004 4.59528 7.08358 4.59931C7.09701 4.60334 7.11077 4.60669 7.1242 4.6096C7.13796 4.6124 7.15195 4.61442 7.16605 4.61587C7.18003 4.61732 7.19413 4.61788 7.20812 4.61788Z" fill="#333333"></path>
    <path d="M6.03809 3.29489C6.05219 3.29489 6.06651 3.29411 6.0805 3.29254C6.09426 3.29143 6.10825 3.28919 6.12201 3.28661C6.13577 3.2837 6.14954 3.28024 6.16296 3.27598C6.17617 3.27195 6.1896 3.26737 6.20246 3.262C6.21544 3.25651 6.22831 3.25047 6.24062 3.24398C6.25293 3.23738 6.2649 3.23022 6.27665 3.2225C6.2884 3.21466 6.29993 3.20616 6.31045 3.19721C6.32163 3.18837 6.33193 3.17886 6.342 3.1689C6.35207 3.15916 6.36147 3.14853 6.37031 3.13768C6.37926 3.12671 6.38754 3.1153 6.39526 3.10355C6.40298 3.09214 6.41048 3.07983 6.41708 3.06752C6.42357 3.05521 6.42962 3.04256 6.43476 3.0297C6.44025 3.01649 6.44506 3.0034 6.44909 2.98986C6.45311 2.97677 6.45658 2.96301 6.45938 2.94924C6.46229 2.93548 6.4643 2.92138 6.46576 2.90739C6.46721 2.8934 6.46777 2.87931 6.46777 2.86532C6.46777 2.85122 6.46721 2.8369 6.46576 2.82291C6.4643 2.80915 6.46229 2.79505 6.45938 2.78139C6.45658 2.76763 6.45311 2.75387 6.44909 2.74044C6.44506 2.72724 6.44025 2.71381 6.43476 2.70094C6.42962 2.68796 6.42357 2.67509 6.41708 2.66278C6.41048 2.65047 6.40298 2.63839 6.39526 2.62664C6.38754 2.615 6.37926 2.60348 6.37031 2.59285C6.36147 2.58199 6.35207 2.57136 6.342 2.5614C6.33193 2.55133 6.32163 2.54193 6.31045 2.53298C6.29993 2.52414 6.2884 2.51586 6.27665 2.50814C6.2649 2.50042 6.25293 2.49292 6.24062 2.48632C6.22831 2.47972 6.21544 2.47379 6.20246 2.46864C6.1896 2.46316 6.17617 2.45823 6.16296 2.45432C6.14954 2.45029 6.13577 2.44682 6.12201 2.44391C6.10825 2.44134 6.09426 2.4391 6.0805 2.43764C6.05241 2.43485 6.0241 2.43485 5.99601 2.43764C5.98203 2.4391 5.96793 2.44134 5.95416 2.44391C5.9404 2.44682 5.92675 2.45029 5.91354 2.45432C5.90012 2.45823 5.88691 2.46316 5.87404 2.46864C5.86106 2.47379 5.8482 2.47972 5.83589 2.48632C5.82358 2.49292 5.81127 2.50042 5.79986 2.50814C5.78811 2.51586 5.77658 2.52414 5.76573 2.53298C5.75487 2.54193 5.74424 2.55133 5.73451 2.5614C5.72455 2.57136 5.71504 2.58199 5.7062 2.59285C5.69725 2.60348 5.68874 2.615 5.68091 2.62664C5.67319 2.63839 5.66603 2.65047 5.65954 2.66278C5.65293 2.67509 5.64689 2.68796 5.64141 2.70094C5.63626 2.71381 5.63145 2.72724 5.62742 2.74044C5.62306 2.75387 5.6197 2.76763 5.61713 2.78139C5.61422 2.79505 5.6122 2.80915 5.61075 2.82291C5.60941 2.8369 5.60851 2.85122 5.60851 2.86532C5.60851 2.97845 5.65428 3.089 5.73451 3.1689C5.74424 3.17897 5.75487 3.18837 5.76573 3.19721C5.77658 3.20616 5.78811 3.21466 5.79986 3.2225C5.81127 3.23022 5.82358 3.23738 5.83589 3.24398C5.8482 3.25047 5.86106 3.25651 5.87404 3.262C5.88691 3.26737 5.90012 3.27195 5.91354 3.27598C5.92675 3.28024 5.9404 3.2837 5.95416 3.28661C5.96793 3.28919 5.98203 3.29143 5.99601 3.29254C6.01 3.29411 6.0241 3.29489 6.03809 3.29489Z" fill="#333333"></path>
  </symbol>

  <symbol  xmlns="http://www.w3.org/2000/svg" viewBox="0 0 20 20" id="favorites">
    <path fill-rule="evenodd" clip-rule="evenodd" d="M10.0042 2.93062C11.0616 1.92764 12.3467 1 14.2623 1C15.0185 1 15.7668 1.15186 16.4643 1.4464C17.1617 1.74092 17.7942 2.17208 18.326 2.71431C18.8578 3.25617 19.2788 3.89847 19.5656 4.60406C19.8526 5.30976 20 6.06552 20 6.82833C20 7.59113 19.8526 8.34689 19.5656 9.05259C19.2787 9.75825 18.8577 10.4006 18.3258 10.9425C18.3258 10.9426 18.3259 10.9425 18.3258 10.9425L9.99977 19.4278L1.67373 10.9425C0.599945 9.84819 0 8.36792 0 6.82833C0 5.28873 0.599945 3.80847 1.67373 2.71414C2.74815 1.61917 4.20946 1.00047 5.73725 1.00047C7.73186 1.00047 8.97652 1.93604 10.0042 2.93062ZM14.2623 3C12.821 3 11.9537 3.78129 10.7135 5.04513L9.99977 5.77256L9.286 5.04513C8.04123 3.77656 7.26841 3.00047 5.73725 3.00047C4.75225 3.00047 3.80367 3.39907 3.10128 4.11489C2.39826 4.83136 2 5.80707 2 6.82833C2 7.84959 2.39826 8.82529 3.10128 9.54176L9.99977 16.5722L16.8983 9.54176C17.2463 9.18723 17.5235 8.7651 17.7129 8.29932C17.9023 7.83352 18 7.33361 18 6.82833C18 6.32304 17.9023 5.82314 17.7129 5.35733C17.5235 4.89156 17.2465 4.46959 16.8984 4.11506C16.5506 3.7604 16.1383 3.47975 15.6862 3.28886C15.2342 3.09799 14.7504 3 14.2623 3Z" ></path>
  </symbol>

  <symbol fill="none" xmlns="http://www.w3.org/2000/svg" viewBox="0 0 15 16" id="del">
    <path d="M1.57178 3.92773H2.92892H13.7861" stroke="#333333" stroke-width="1.6" stroke-linecap="round" stroke-linejoin="round"></path>
    <path d="M4.96442 3.92815V2.57101C4.96442 2.21107 5.10741 1.86588 5.36192 1.61137C5.61644 1.35685 5.96163 1.21387 6.32157 1.21387H9.03585C9.39579 1.21387 9.74098 1.35685 9.9955 1.61137C10.25 1.86588 10.393 2.21107 10.393 2.57101V3.92815M12.4287 3.92815V13.4282C12.4287 13.7881 12.2857 14.1333 12.0312 14.3878C11.7767 14.6423 11.4315 14.7853 11.0716 14.7853H4.28585C3.92592 14.7853 3.58072 14.6423 3.32621 14.3878C3.0717 14.1333 2.92871 13.7881 2.92871 13.4282V3.92815H12.4287Z" stroke="#333333" stroke-width="1.6" stroke-linecap="round" stroke-linejoin="round"></path>
  </symbol>


<symbol fill="none" xmlns="http://www.w3.org/2000/svg" viewBox="0 0 39 38" id="plus">
    <rect x="0.354492" width="38" height="38" rx="19" fill="#FFB000"></rect>
    <line x1="12.9473" y1="18.7378" x2="25.947" y2="18.8185" stroke="white" stroke-width="3" stroke-linecap="round" stroke-linejoin="round"></line>
    <line x1="19.6714" y1="12.583" x2="19.6714" y2="25.583" stroke="white" stroke-width="3" stroke-linecap="round" stroke-linejoin="round"></line>
  </symbol>
  
   <symbol fill="none" xmlns="http://www.w3.org/2000/svg" viewBox="0 0 10 6" id="arrow-top">
    <path d="M9 5L5 1L1 5" stroke="#FFB000" stroke-width="2" stroke-linecap="round" stroke-linejoin="round"></path>
  </symbol>

<symbol fill="none" xmlns="http://www.w3.org/2000/svg" viewBox="0 0 8 14" id="arrow-right">
    <path d="M1 13L7 7L0.999999 1" stroke="#333333" stroke-width="2" stroke-linecap="round" stroke-linejoin="round"></path>
  </symbol>


  <symbol fill="none" xmlns="http://www.w3.org/2000/svg" viewBox="0 0 28 28" id="promocode">
    <circle cx="14" cy="14" r="14" fill="#0EB44D"></circle>
    <path fill-rule="evenodd" clip-rule="evenodd" d="M21 9.73864L13.0501 18.375L7 12.5838L7.99269 11.5298L12.9853 16.3088L19.9432 8.75L21 9.73864Z" fill="white"></path>
  </symbol>

<symbol fill="none" xmlns="http://www.w3.org/2000/svg" viewBox="0 0 44 44" id="jet">
    <g filter="url(#filter0_d)">
      <circle cx="22" cy="20" r="12" fill="#FFB000"></circle>
    </g>
    <path d="M22.382 13.6357L16.2729 21.2721H21.7711L21.1602 26.363L27.2693 18.7267H21.7711L22.382 13.6357Z" fill="white"></path>
    <defs>
      <filter id="filter0_d" x="0" y="0" width="44" height="44" filterUnits="userSpaceOnUse" color-interpolation-filters="sRGB">
        <feFlood flood-opacity="0" result="BackgroundImageFix"></feFlood>
        <feColorMatrix in="SourceAlpha" type="matrix" values="0 0 0 0 0 0 0 0 0 0 0 0 0 0 0 0 0 0 127 0" result="hardAlpha"></feColorMatrix>
        <feOffset dy="2"></feOffset>
        <feGaussianBlur stdDeviation="5"></feGaussianBlur>
        <feColorMatrix type="matrix" values="0 0 0 0 1 0 0 0 0 0.690196 0 0 0 0 0 0 0 0 0.5 0"></feColorMatrix>
        <feBlend mode="normal" in2="BackgroundImageFix" result="effect1_dropShadow"></feBlend>
        <feBlend mode="normal" in="SourceGraphic" in2="effect1_dropShadow" result="shape"></feBlend>
      </filter>
    </defs>
  </symbol>

</svg>